<svg width="200" height="200" viewBox="0 0 200 200" xmlns="http://www.w3.org/2000/svg">
  <defs>
    <!-- 太陽漸變 -->
    <radialGradient id="sunGradient" cx="50%" cy="50%" r="50%">
      <stop offset="0%" style="stop-color:#FFD700;stop-opacity:1" />
      <stop offset="100%" style="stop-color:#FF8C00;stop-opacity:1" />
    </radialGradient>

    <!-- 面板漸變 -->
    <linearGradient id="panelGradient" x1="0%" y1="0%" x2="100%" y2="100%">
      <stop offset="0%" style="stop-color:#1E3A8A;stop-opacity:1" />
      <stop offset="100%" style="stop-color:#3B82F6;stop-opacity:1" />
    </linearGradient>

    <!-- 數據漸變 -->
    <linearGradient id="dataGradient" x1="0%" y1="0%" x2="0%" y2="100%">
      <stop offset="0%" style="stop-color:#10B981;stop-opacity:0.8" />
      <stop offset="100%" style="stop-color:#059669;stop-opacity:1" />
    </linearGradient>
  </defs>

  <!-- 背景圓 -->
  <circle cx="100" cy="100" r="95" fill="#F0F9FF" stroke="#3B82F6" stroke-width="2"/>

  <!-- 太陽光芒 -->
  <g id="sunRays">
    <line x1="100" y1="35" x2="100" y2="20" stroke="url(#sunGradient)" stroke-width="3" stroke-linecap="round"/>
    <line x1="135" y1="45" x2="145" y2="30" stroke="url(#sunGradient)" stroke-width="3" stroke-linecap="round"/>
    <line x1="155" y1="65" x2="170" y2="55" stroke="url(#sunGradient)" stroke-width="3" stroke-linecap="round"/>
    <line x1="165" y1="100" x2="180" y2="100" stroke="url(#sunGradient)" stroke-width="3" stroke-linecap="round"/>
    <line x1="65" y1="45" x2="55" y2="30" stroke="url(#sunGradient)" stroke-width="3" stroke-linecap="round"/>
    <line x1="45" y1="65" x2="30" y2="55" stroke="url(#sunGradient)" stroke-width="3" stroke-linecap="round"/>
    <line x1="35" y1="100" x2="20" y2="100" stroke="url(#sunGradient)" stroke-width="3" stroke-linecap="round"/>
  </g>

  <!-- 太陽核心 -->
  <circle cx="100" cy="60" r="18" fill="url(#sunGradient)" opacity="0.9"/>

  <!-- 太陽能面板 (3個) -->
  <g id="solarPanels">
    <!-- 左側面板 -->
    <rect x="30" y="100" width="35" height="55" rx="3" fill="url(#panelGradient)" stroke="#1E3A8A" stroke-width="2"/>
    <line x1="35" y1="110" x2="60" y2="110" stroke="#60A5FA" stroke-width="1" opacity="0.6"/>
    <line x1="35" y1="120" x2="60" y2="120" stroke="#60A5FA" stroke-width="1" opacity="0.6"/>
    <line x1="35" y1="130" x2="60" y2="130" stroke="#60A5FA" stroke-width="1" opacity="0.6"/>
    <line x1="35" y1="140" x2="60" y2="140" stroke="#60A5FA" stroke-width="1" opacity="0.6"/>
    <line x1="47.5" y1="105" x2="47.5" y2="150" stroke="#60A5FA" stroke-width="1" opacity="0.6"/>

    <!-- 中間面板 -->
    <rect x="82.5" y="100" width="35" height="55" rx="3" fill="url(#panelGradient)" stroke="#1E3A8A" stroke-width="2"/>
    <line x1="87.5" y1="110" x2="112.5" y2="110" stroke="#60A5FA" stroke-width="1" opacity="0.6"/>
    <line x1="87.5" y1="120" x2="112.5" y2="120" stroke="#60A5FA" stroke-width="1" opacity="0.6"/>
    <line x1="87.5" y1="130" x2="112.5" y2="130" stroke="#60A5FA" stroke-width="1" opacity="0.6"/>
    <line x1="87.5" y1="140" x2="112.5" y2="140" stroke="#60A5FA" stroke-width="1" opacity="0.6"/>
    <line x1="100" y1="105" x2="100" y2="150" stroke="#60A5FA" stroke-width="1" opacity="0.6"/>

    <!-- 右側面板 -->
    <rect x="135" y="100" width="35" height="55" rx="3" fill="url(#panelGradient)" stroke="#1E3A8A" stroke-width="2"/>
    <line x1="140" y1="110" x2="165" y2="110" stroke="#60A5FA" stroke-width="1" opacity="0.6"/>
    <line x1="140" y1="120" x2="165" y2="120" stroke="#60A5FA" stroke-width="1" opacity="0.6"/>
    <line x1="140" y1="130" x2="165" y2="130" stroke="#60A5FA" stroke-width="1" opacity="0.6"/>
    <line x1="140" y1="140" x2="165" y2="140" stroke="#60A5FA" stroke-width="1" opacity="0.6"/>
    <line x1="152.5" y1="105" x2="152.5" y2="150" stroke="#60A5FA" stroke-width="1" opacity="0.6"/>
  </g>

  <!-- 數據監控圖表 (底部) -->
  <g id="dataChart">
    <!-- 背景框 -->
    <rect x="50" y="165" width="100" height="25" rx="3" fill="white" stroke="#10B981" stroke-width="2" opacity="0.9"/>

    <!-- 柱狀圖 -->
    <rect x="60" y="177" width="6" height="10" fill="url(#dataGradient)" rx="1"/>
    <rect x="72" y="172" width="6" height="15" fill="url(#dataGradient)" rx="1"/>
    <rect x="84" y="175" width="6" height="12" fill="url(#dataGradient)" rx="1"/>
    <rect x="96" y="170" width="6" height="17" fill="url(#dataGradient)" rx="1"/>
    <rect x="108" y="173" width="6" height="14" fill="url(#dataGradient)" rx="1"/>
    <rect x="120" y="176" width="6" height="11" fill="url(#dataGradient)" rx="1"/>
    <rect x="132" y="171" width="6" height="16" fill="url(#dataGradient)" rx="1"/>
  </g>

  <!-- 連接線 (能量流動) -->
  <g id="energyFlow" opacity="0.4">
    <path d="M 100 78 Q 100 85 100 95" stroke="#FFD700" stroke-width="2" fill="none" stroke-dasharray="4,4"/>
    <path d="M 100 78 Q 70 85 47.5 95" stroke="#FFD700" stroke-width="2" fill="none" stroke-dasharray="4,4"/>
    <path d="M 100 78 Q 130 85 152.5 95" stroke="#FFD700" stroke-width="2" fill="none" stroke-dasharray="4,4"/>
  </g>

  <!-- 監控圖標 (右上角小圖示) -->
  <g id="monitorIcon">
    <circle cx="155" cy="85" r="10" fill="#10B981" opacity="0.9"/>
    <path d="M 152 85 L 155 88 L 160 82" stroke="white" stroke-width="2" fill="none" stroke-linecap="round" stroke-linejoin="round"/>
  </g>
</svg>
